<svg width="363" height="249" viewBox="0 0 363 249" fill="none" xmlns="http://www.w3.org/2000/svg">
<g filter="url(#filter0_dddddd_12_3837)">
<path d="M94.2498 2.00335C94.8674 2 95.4791 2 96.0982 2H265.949C266.556 2 267.173 1.99983 267.779 2.00318C268.2 2.00578 268.628 2.01284 269.052 2.01981C269.147 2.02138 269.242 2.02294 269.336 2.02445C270.468 2.03689 271.597 2.13581 272.713 2.32033C273.834 2.50942 274.919 2.86329 275.935 3.37025C277.965 4.40464 279.618 6.04433 280.66 8.05869C281.169 9.0623 281.522 10.1369 281.705 11.2456C281.894 12.3538 281.998 13.4743 282.019 14.598C282.026 15.1115 282.026 15.6266 282.026 16.1402C282.039 16.7469 282.039 17.355 282.039 17.9684V53.0134C282.039 53.6316 282.039 54.2367 282.026 54.845C282.026 55.3649 282.026 55.8686 282.019 56.3887C281.998 57.5123 281.894 58.6328 281.705 59.7409C281.522 60.8503 281.17 61.9256 280.66 62.9297C280.142 63.9289 279.469 64.8412 278.665 65.6328C277.867 66.4313 276.945 67.0977 275.935 67.6066C274.919 68.1149 273.834 68.4709 272.713 68.6628C271.596 68.8459 270.468 68.9449 269.336 68.9589C268.822 68.9703 268.294 68.9768 267.779 68.9768C267.173 68.9802 266.556 68.9802 265.949 68.9802H96.0982C95.4791 68.9802 94.8674 68.9802 94.2499 68.9768C93.7329 68.9768 93.22 68.9703 92.6983 68.9589C91.5647 68.9441 90.4337 68.8451 89.315 68.6628C88.1978 68.4722 87.1159 68.1161 86.1055 67.6066C85.0939 67.098 84.1712 66.4316 83.3727 65.6328C82.5668 64.8442 81.895 63.9314 81.3835 62.9297C80.8698 61.9263 80.5139 60.851 80.3282 59.7409C80.1403 58.633 80.0391 57.5123 80.0257 56.3889C80.0149 56.0332 80.0107 55.6852 80.0065 55.3345C80.0046 55.1722 80.0026 55.0094 80 54.845V16.1402C80.0026 15.9759 80.0046 15.8114 80.0066 15.6469C80.0108 15.2972 80.015 14.9473 80.0257 14.5981C80.0391 13.4746 80.1402 12.3538 80.3282 11.2458C80.5144 10.1363 80.8703 9.06151 81.3835 8.05852C81.8952 7.05364 82.5669 6.1371 83.3727 5.34415C84.1743 4.54891 85.0964 3.88294 86.1055 3.37042C87.1159 2.86221 88.198 2.50825 89.315 2.3205C90.4335 2.13676 91.5646 2.03784 92.6983 2.02462C92.8052 2.02294 92.9117 2.02119 93.018 2.01945C93.4304 2.0127 93.8388 2.00601 94.2498 2.00335Z" fill="black"/>
</g>
<path d="M94.258 67.5153C93.7435 67.5153 93.2415 67.5087 92.7312 67.4974C91.6739 67.4837 90.6191 67.3925 89.5754 67.2244C88.6022 67.0581 87.6595 66.7488 86.7783 66.3068C85.9051 65.8684 85.1087 65.2937 84.4196 64.6045C83.7204 63.9234 83.1384 63.1335 82.6964 62.266C82.2497 61.3929 81.9405 60.4571 81.7796 59.4911C81.606 58.453 81.5121 57.4035 81.4987 56.3514C81.4879 55.9982 81.4739 54.8225 81.4739 54.8225V16.1403C81.4739 16.1403 81.4887 14.9826 81.4987 14.6423C81.5116 13.5919 81.605 12.544 81.7781 11.5076C81.9393 10.539 82.2487 9.60041 82.6958 8.72445C83.136 7.85755 83.7148 7.06702 84.4096 6.38349C85.1038 5.69347 85.9027 5.11572 86.7774 4.67131C87.6566 4.23074 88.5976 3.92373 89.5688 3.76055C90.6159 3.59079 91.6744 3.49905 92.7354 3.4861L94.2588 3.46533H267.771L269.313 3.4866C270.364 3.49899 271.413 3.59 272.451 3.75887C273.432 3.92415 274.383 4.23336 275.272 4.67633C277.024 5.57192 278.45 6.98883 279.349 8.72847C279.789 9.59842 280.094 10.5294 280.253 11.4897C280.428 12.5346 280.526 13.5907 280.546 14.6497C280.551 15.1239 280.551 15.6333 280.551 16.1403C280.565 16.7683 280.565 17.3659 280.565 17.9685V53.0136C280.565 53.6219 280.565 54.2155 280.551 54.814C280.551 55.3585 280.551 55.8574 280.545 56.3708C280.525 57.4109 280.428 58.4483 280.256 59.4745C280.098 60.4475 279.791 61.3906 279.344 62.2709C278.899 63.1289 278.321 63.912 277.63 64.5913C276.94 65.2841 276.142 65.8623 275.267 66.3034C274.38 66.7488 273.431 67.0592 272.451 67.2241C271.407 67.3931 270.352 67.4844 269.295 67.4972C268.79 67.5089 268.285 67.5149 267.78 67.5151L265.95 67.5185L94.258 67.5153Z" fill="black"/>
<path d="M121.819 35.9939C121.837 34.5963 122.212 33.2259 122.907 32.0103C123.603 30.7948 124.597 29.7734 125.798 29.0414C125.035 27.9611 124.029 27.072 122.859 26.4448C121.69 25.8176 120.389 25.4696 119.059 25.4283C116.224 25.1331 113.476 27.1108 112.031 27.1108C110.558 27.1108 108.334 25.4576 105.938 25.5065C104.389 25.5561 102.879 26.0029 101.555 26.8034C100.232 27.6039 99.1401 28.7308 98.3863 30.0742C95.121 35.6813 97.5566 43.9215 100.685 48.4537C102.25 50.6731 104.078 53.1521 106.472 53.0641C108.814 52.9679 109.688 51.583 112.515 51.583C115.316 51.583 116.136 53.0641 118.578 53.0082C121.091 52.9679 122.674 50.7791 124.184 48.5388C125.309 46.9575 126.174 45.2097 126.748 43.3604C125.288 42.748 124.042 41.7229 123.166 40.4129C122.289 39.1029 121.821 37.5661 121.819 35.9939ZM117.207 22.4475C118.577 20.8162 119.252 18.7194 119.089 16.6025C116.996 16.8205 115.062 17.8128 113.673 19.3815C112.994 20.1479 112.474 21.0394 112.143 22.0052C111.812 22.971 111.676 23.9921 111.742 25.0102C112.789 25.0209 113.825 24.7958 114.772 24.3519C115.719 23.908 116.551 23.2569 117.207 22.4475ZM151.422 47.4458H143.431L141.511 53.0662H138.126L145.696 32.2722H149.213L156.783 53.0662H153.34L151.422 47.4458ZM144.258 44.8522H150.593L147.47 35.7308H147.383L144.258 44.8522ZM173.131 45.4868C173.131 50.1979 170.588 53.2247 166.751 53.2247C165.779 53.2752 164.813 53.0531 163.962 52.584C163.112 52.115 162.411 51.4178 161.942 50.5723H161.869V58.0815H158.731V37.9057H161.769V40.4273H161.826C162.318 39.5859 163.03 38.8924 163.887 38.4204C164.744 37.9485 165.714 37.7158 166.694 37.7471C170.573 37.7471 173.131 40.7887 173.131 45.4867V45.4868ZM169.905 45.4868C169.905 42.4175 168.306 40.3995 165.866 40.3995C163.468 40.3995 161.856 42.4598 161.856 45.4867C161.856 48.5415 163.468 50.5872 165.866 50.5872C168.306 50.5872 169.905 48.584 169.905 45.4867V45.4868ZM189.955 45.4868C189.955 50.1979 187.413 53.2247 183.576 53.2247C182.604 53.2751 181.637 53.0531 180.787 52.584C179.936 52.1149 179.236 51.4177 178.766 50.5723H178.694V58.0815H175.556V37.9057H178.593V40.4273H178.651C179.142 39.5859 179.854 38.8924 180.711 38.4204C181.568 37.9485 182.538 37.7158 183.518 37.7471C187.398 37.7471 189.955 40.7887 189.955 45.4867V45.4868ZM186.73 45.4868C186.73 42.4175 185.131 40.3995 182.69 40.3995C180.293 40.3995 178.68 42.4598 178.68 45.4867C178.68 48.5415 180.293 50.5872 182.69 50.5872C185.131 50.5872 186.73 48.584 186.73 45.4867V45.4868ZM201.075 47.2725C201.307 49.3345 203.327 50.6885 206.087 50.6885C208.732 50.6885 210.634 49.3345 210.634 47.4752C210.634 45.8611 209.487 44.8947 206.77 44.2325L204.052 43.5833C200.202 42.6609 198.415 40.8753 198.415 37.9775C198.415 34.3897 201.568 31.9255 206.044 31.9255C210.474 31.9255 213.512 34.3897 213.614 37.9775H210.446C210.257 35.9025 208.527 34.6498 205.999 34.6498C203.472 34.6498 201.742 35.9172 201.742 37.7617C201.742 39.2319 202.847 40.0969 205.549 40.759L207.859 41.3217C212.161 42.3306 213.948 44.0444 213.948 47.0858C213.948 50.9762 210.824 53.4128 205.854 53.4128C201.205 53.4128 198.065 51.0333 197.863 47.2724L201.075 47.2725ZM220.72 34.3181V37.9057H223.627V40.3701H220.72V48.7278C220.72 50.0263 221.302 50.6313 222.58 50.6313C222.925 50.6253 223.27 50.6012 223.612 50.5592V53.009C223.038 53.1154 222.454 53.1636 221.869 53.1527C218.775 53.1527 217.568 52 217.568 49.0597V40.3701H215.345V37.9057H217.568V34.3181H220.72ZM225.31 45.4868C225.31 40.7167 228.143 37.7193 232.56 37.7193C236.992 37.7193 239.812 40.7167 239.812 45.4868C239.812 50.2699 237.007 53.2542 232.56 53.2542C228.115 53.2542 225.31 50.2699 225.31 45.4868ZM236.615 45.4868C236.615 42.2147 235.103 40.2833 232.56 40.2833C230.018 40.2833 228.507 42.2293 228.507 45.4868C228.507 48.7721 230.018 50.6885 232.56 50.6885C235.103 50.6885 236.615 48.7721 236.615 45.4868ZM242.399 37.9057H245.391V40.4861H245.464C245.666 39.6802 246.142 38.968 246.812 38.4692C247.482 37.9704 248.304 37.7154 249.141 37.7471C249.502 37.7458 249.863 37.7848 250.216 37.8632V40.774C249.759 40.6356 249.283 40.5721 248.806 40.5859C248.35 40.5676 247.896 40.6473 247.474 40.8195C247.052 40.9918 246.673 41.2526 246.362 41.584C246.052 41.9153 245.817 42.3095 245.674 42.7393C245.532 43.1691 245.485 43.6244 245.536 44.0739V53.0662H242.399V37.9057ZM264.682 48.6133C264.26 51.3655 261.558 53.2542 258.1 53.2542C253.653 53.2542 250.893 50.2994 250.893 45.5587C250.893 40.8034 253.668 37.7193 257.968 37.7193C262.198 37.7193 264.857 40.6006 264.857 45.1973V46.2635H254.061V46.4515C254.011 47.0095 254.081 47.5715 254.267 48.1004C254.453 48.6293 254.751 49.1129 255.14 49.519C255.528 49.9252 256 50.2446 256.523 50.4561C257.046 50.6677 257.608 50.7664 258.173 50.7458C258.914 50.8147 259.658 50.6444 260.294 50.2602C260.93 49.876 261.425 49.2984 261.703 48.6133H264.682ZM254.076 44.0886H261.718C261.746 43.5869 261.669 43.0849 261.492 42.614C261.316 42.1431 261.043 41.7135 260.691 41.3522C260.339 40.9909 259.915 40.7057 259.447 40.5144C258.978 40.3232 258.475 40.23 257.968 40.2408C257.457 40.2378 256.951 40.3352 256.478 40.5273C256.005 40.7195 255.575 41.0026 255.214 41.3603C254.852 41.718 254.565 42.1433 254.369 42.6116C254.174 43.0799 254.074 43.5819 254.076 44.0886ZM143.865 16.6204C144.523 16.5736 145.183 16.6721 145.798 16.909C146.412 17.1458 146.967 17.515 147.42 17.9899C147.874 18.4649 148.215 19.0337 148.42 19.6554C148.625 20.2772 148.688 20.9362 148.605 21.5851C148.605 24.7771 146.866 26.612 143.865 26.612H140.226V16.6202L143.865 16.6204ZM141.791 25.1989H143.69C144.16 25.2267 144.631 25.1503 145.067 24.9751C145.504 24.7999 145.895 24.5304 146.214 24.1862C146.532 23.842 146.769 23.4317 146.907 22.9853C147.045 22.5388 147.081 22.0674 147.012 21.6054C147.076 21.1452 147.036 20.6767 146.896 20.2336C146.756 19.7904 146.518 19.3835 146.201 19.042C145.883 18.7005 145.494 18.4329 145.06 18.2584C144.625 18.0838 144.158 18.0066 143.69 18.0323H141.791V25.1989ZM150.373 22.8385C150.325 22.343 150.382 21.843 150.541 21.3707C150.699 20.8984 150.955 20.4641 151.293 20.0957C151.63 19.7274 152.042 19.433 152.501 19.2316C152.96 19.0302 153.456 18.9262 153.958 18.9262C154.46 18.9262 154.956 19.0302 155.415 19.2316C155.874 19.433 156.286 19.7274 156.623 20.0957C156.961 20.4641 157.217 20.8984 157.376 21.3707C157.534 21.843 157.591 22.343 157.543 22.8385C157.592 23.3346 157.536 23.8353 157.378 24.3085C157.22 24.7817 156.964 25.2169 156.626 25.5861C156.289 25.9553 155.877 26.2503 155.417 26.4522C154.958 26.6541 154.461 26.7584 153.958 26.7584C153.456 26.7584 152.959 26.6541 152.499 26.4522C152.04 26.2503 151.628 25.9553 151.29 25.5861C150.952 25.2169 150.696 24.7817 150.538 24.3085C150.38 23.8353 150.324 23.3346 150.373 22.8385ZM156 22.8385C156 21.204 155.26 20.2482 153.961 20.2482C152.656 20.2482 151.923 21.204 151.923 22.8385C151.923 24.486 152.657 25.4345 153.961 25.4345C155.26 25.4345 156 24.4795 156 22.8385ZM167.075 26.6118H165.519L163.947 21.0585H163.829L162.264 26.6118H160.722L158.627 19.0715H160.149L161.511 24.8251H161.623L163.186 19.0715H164.625L166.188 24.8251H166.307L167.662 19.0715H169.163L167.075 26.6118ZM170.925 19.0717H172.37V20.2695H172.482C172.672 19.8392 172.993 19.4786 173.399 19.2377C173.806 18.9969 174.278 18.888 174.751 18.926C175.12 18.8985 175.492 18.9538 175.837 19.0879C176.183 19.222 176.493 19.4315 176.746 19.7008C176.999 19.9702 177.187 20.2924 177.297 20.6438C177.407 20.9951 177.436 21.3665 177.382 21.7305V26.6117H175.882V22.1042C175.882 20.8926 175.351 20.2899 174.241 20.2899C173.99 20.2783 173.739 20.3207 173.506 20.4142C173.273 20.5077 173.063 20.6501 172.891 20.8316C172.718 21.0131 172.587 21.2294 172.507 21.4657C172.427 21.702 172.399 21.9527 172.426 22.2007V26.6118H170.925V19.0717ZM179.773 16.1281H181.273V26.6118H179.773V16.1281ZM183.359 22.8385C183.311 22.3429 183.368 21.8429 183.527 21.3705C183.685 20.8981 183.941 20.4638 184.279 20.0954C184.617 19.7269 185.028 19.4326 185.487 19.2312C185.946 19.0297 186.443 18.9257 186.945 18.9257C187.447 18.9257 187.943 19.0297 188.402 19.2312C188.861 19.4326 189.273 19.7269 189.61 20.0954C189.948 20.4638 190.204 20.8981 190.363 21.3705C190.521 21.8429 190.578 22.3429 190.53 22.8385C190.579 23.3345 190.522 23.8351 190.364 24.3082C190.206 24.7812 189.95 25.2163 189.612 25.5853C189.275 25.9543 188.863 26.2492 188.404 26.451C187.944 26.6528 187.447 26.7571 186.945 26.7571C186.442 26.7571 185.945 26.6528 185.486 26.451C185.026 26.2492 184.615 25.9543 184.277 25.5853C183.939 25.2163 183.683 24.7812 183.525 24.3082C183.367 23.8351 183.31 23.3345 183.359 22.8385ZM188.986 22.8385C188.986 21.204 188.246 20.2482 186.947 20.2482C185.642 20.2482 184.909 21.204 184.909 22.8385C184.909 24.486 185.643 25.4345 186.947 25.4345C188.246 25.4345 188.986 24.4795 188.986 22.8385ZM192.11 24.4795C192.11 23.1222 193.129 22.3397 194.938 22.2285L196.997 22.1108V21.4599C196.997 20.6635 196.466 20.2139 195.441 20.2139C194.603 20.2139 194.023 20.5188 193.856 21.052H192.403C192.557 19.7567 193.785 18.9262 195.51 18.9262C197.416 18.9262 198.491 19.8673 198.491 21.4599V26.6118H197.046V25.5522H196.928C196.687 25.9323 196.348 26.2422 195.947 26.4501C195.546 26.6581 195.096 26.7568 194.644 26.7361C194.325 26.769 194.002 26.7352 193.697 26.6369C193.392 26.5386 193.111 26.378 192.872 26.1654C192.634 25.9528 192.442 25.693 192.311 25.4026C192.18 25.1122 192.111 24.7978 192.11 24.4795ZM196.997 23.8352V23.2047L195.14 23.3224C194.093 23.3919 193.619 23.7452 193.619 24.4099C193.619 25.0885 194.212 25.4836 195.028 25.4836C195.267 25.5076 195.509 25.4836 195.739 25.4131C195.968 25.3427 196.181 25.2271 196.365 25.0733C196.549 24.9195 196.699 24.7306 196.808 24.5179C196.916 24.3052 196.981 24.073 196.997 23.8352ZM200.463 22.8385C200.463 20.4559 201.698 18.9466 203.619 18.9466C204.094 18.9249 204.565 19.0378 204.978 19.272C205.391 19.5063 205.728 19.8522 205.95 20.2695H206.062V16.1279H207.563V26.6117H206.125V25.4203H206.006C205.767 25.8347 205.418 26.1764 204.997 26.4083C204.577 26.6402 204.1 26.7535 203.619 26.7359C201.685 26.7359 200.463 25.2265 200.463 22.8383V22.8385ZM202.013 22.8385C202.013 24.4377 202.773 25.4002 204.044 25.4002C205.309 25.4002 206.09 24.4239 206.09 22.8449C206.09 21.2735 205.3 20.2834 204.044 20.2834C202.781 20.2834 202.013 21.2522 202.013 22.8385ZM213.77 22.8385C213.723 22.343 213.78 21.843 213.938 21.3707C214.097 20.8984 214.353 20.4641 214.69 20.0957C215.028 19.7274 215.439 19.433 215.898 19.2316C216.357 19.0302 216.854 18.9262 217.356 18.9262C217.858 18.9262 218.354 19.0302 218.813 19.2316C219.272 19.433 219.683 19.7274 220.021 20.0957C220.359 20.4641 220.615 20.8984 220.773 21.3707C220.932 21.843 220.989 22.343 220.941 22.8385C220.99 23.3346 220.933 23.8353 220.775 24.3085C220.617 24.7817 220.361 25.2169 220.024 25.5861C219.686 25.9553 219.274 26.2503 218.815 26.4522C218.355 26.6541 217.858 26.7584 217.356 26.7584C216.853 26.7584 216.356 26.6541 215.897 26.4522C215.437 26.2503 215.025 25.9553 214.688 25.5861C214.35 25.2169 214.094 24.7817 213.936 24.3085C213.778 23.8353 213.722 23.3346 213.77 22.8385ZM219.398 22.8385C219.398 21.204 218.657 20.2482 217.358 20.2482C216.054 20.2482 215.32 21.204 215.32 22.8385C215.32 24.486 216.054 25.4345 217.358 25.4345C218.657 25.4345 219.398 24.4795 219.398 22.8385ZM222.954 19.0717H224.399V20.2695H224.511C224.701 19.8392 225.022 19.4786 225.428 19.2377C225.835 18.9969 226.307 18.888 226.779 18.926C227.149 18.8985 227.521 18.9538 227.866 19.0879C228.212 19.222 228.522 19.4315 228.775 19.7008C229.028 19.9702 229.216 20.2924 229.326 20.6438C229.436 20.9951 229.465 21.3665 229.411 21.7305V26.6117H227.911V22.1042C227.911 20.8926 227.38 20.2899 226.27 20.2899C226.019 20.2783 225.768 20.3207 225.535 20.4142C225.302 20.5077 225.092 20.6501 224.92 20.8316C224.747 21.0131 224.616 21.2294 224.536 21.4657C224.456 21.702 224.428 21.9527 224.455 22.2007V26.6118H222.954L222.954 19.0717ZM237.889 17.1944V19.106H239.536V20.3594H237.889V24.2365C237.889 25.0264 238.217 25.3724 238.964 25.3724C239.155 25.3717 239.346 25.3602 239.536 25.3379V26.5775C239.267 26.6253 238.994 26.6507 238.72 26.6535C237.052 26.6535 236.387 26.0713 236.387 24.6177V20.3594H235.18V19.1059H236.387V17.1946L237.889 17.1944ZM241.586 16.1281H243.073V20.2834H243.192C243.391 19.8491 243.721 19.4864 244.136 19.2447C244.55 19.003 245.03 18.894 245.51 18.9326C245.878 18.9127 246.246 18.9736 246.587 19.111C246.929 19.2484 247.236 19.4589 247.486 19.7274C247.736 19.9959 247.923 20.3158 248.034 20.6643C248.145 21.0129 248.177 21.3814 248.128 21.7437V26.6118H246.626V22.1108C246.626 20.9063 246.061 20.2964 245.001 20.2964C244.743 20.2755 244.483 20.3106 244.24 20.3995C243.998 20.4883 243.778 20.6287 243.595 20.8108C243.413 20.9929 243.273 21.2123 243.185 21.4536C243.097 21.695 243.063 21.9524 243.086 22.2081V26.6118H241.586V16.1281ZM256.877 24.5758C256.673 25.265 256.231 25.8611 255.629 26.2599C255.027 26.6587 254.302 26.8348 253.583 26.7573C253.082 26.7705 252.584 26.6753 252.124 26.4785C251.664 26.2817 251.252 25.988 250.918 25.6177C250.584 25.2474 250.335 24.8094 250.189 24.3342C250.042 23.8589 250.002 23.3577 250.071 22.8655C250.004 22.3717 250.045 21.8694 250.191 21.3927C250.337 20.916 250.584 20.476 250.917 20.1024C251.249 19.7289 251.659 19.4305 252.117 19.2275C252.576 19.0246 253.074 18.9218 253.576 18.926C255.691 18.926 256.968 20.3594 256.968 22.7272V23.2464H251.599V23.3298C251.576 23.6065 251.611 23.885 251.702 24.1475C251.793 24.41 251.939 24.6506 252.13 24.854C252.32 25.0574 252.552 25.219 252.809 25.3285C253.066 25.438 253.344 25.493 253.624 25.4899C253.983 25.5327 254.346 25.4686 254.668 25.3058C254.99 25.143 255.256 24.8889 255.432 24.5758H256.877ZM251.599 22.1459H255.439C255.458 21.8929 255.423 21.6387 255.337 21.3997C255.251 21.1607 255.116 20.9422 254.94 20.7583C254.763 20.5743 254.55 20.429 254.314 20.3316C254.078 20.2341 253.823 20.1868 253.568 20.1926C253.308 20.1894 253.051 20.2377 252.81 20.3347C252.57 20.4317 252.352 20.5755 252.168 20.7576C251.985 20.9396 251.84 21.1562 251.742 21.3947C251.644 21.6331 251.596 21.8886 251.599 22.1459Z" fill="white"/>
<defs>
<filter id="filter0_dddddd_12_3837" x="0" y="0.703704" width="362.039" height="248.276" filterUnits="userSpaceOnUse" color-interpolation-filters="sRGB">
<feFlood flood-opacity="0" result="BackgroundImageFix"/>
<feColorMatrix in="SourceAlpha" type="matrix" values="0 0 0 0 0 0 0 0 0 0 0 0 0 0 0 0 0 0 127 0" result="hardAlpha"/>
<feOffset dy="1.85185"/>
<feGaussianBlur stdDeviation="1.57407"/>
<feColorMatrix type="matrix" values="0 0 0 0 0.219608 0 0 0 0 0.219608 0 0 0 0 0.219608 0 0 0 0.0240741 0"/>
<feBlend mode="normal" in2="BackgroundImageFix" result="effect1_dropShadow_12_3837"/>
<feColorMatrix in="SourceAlpha" type="matrix" values="0 0 0 0 0 0 0 0 0 0 0 0 0 0 0 0 0 0 127 0" result="hardAlpha"/>
<feOffset dy="8.14815"/>
<feGaussianBlur stdDeviation="3.25926"/>
<feColorMatrix type="matrix" values="0 0 0 0 0.219608 0 0 0 0 0.219608 0 0 0 0 0.219608 0 0 0 0.0392593 0"/>
<feBlend mode="normal" in2="effect1_dropShadow_12_3837" result="effect2_dropShadow_12_3837"/>
<feColorMatrix in="SourceAlpha" type="matrix" values="0 0 0 0 0 0 0 0 0 0 0 0 0 0 0 0 0 0 127 0" result="hardAlpha"/>
<feOffset dy="20"/>
<feGaussianBlur stdDeviation="6.5"/>
<feColorMatrix type="matrix" values="0 0 0 0 0.219608 0 0 0 0 0.219608 0 0 0 0 0.219608 0 0 0 0.05 0"/>
<feBlend mode="normal" in2="effect2_dropShadow_12_3837" result="effect3_dropShadow_12_3837"/>
<feColorMatrix in="SourceAlpha" type="matrix" values="0 0 0 0 0 0 0 0 0 0 0 0 0 0 0 0 0 0 127 0" result="hardAlpha"/>
<feOffset dy="38.5185"/>
<feGaussianBlur stdDeviation="12.7407"/>
<feColorMatrix type="matrix" values="0 0 0 0 0.219608 0 0 0 0 0.219608 0 0 0 0 0.219608 0 0 0 0.0607407 0"/>
<feBlend mode="normal" in2="effect3_dropShadow_12_3837" result="effect4_dropShadow_12_3837"/>
<feColorMatrix in="SourceAlpha" type="matrix" values="0 0 0 0 0 0 0 0 0 0 0 0 0 0 0 0 0 0 127 0" result="hardAlpha"/>
<feOffset dy="64.8148"/>
<feGaussianBlur stdDeviation="23.4259"/>
<feColorMatrix type="matrix" values="0 0 0 0 0.219608 0 0 0 0 0.219608 0 0 0 0 0.219608 0 0 0 0.0759259 0"/>
<feBlend mode="normal" in2="effect4_dropShadow_12_3837" result="effect5_dropShadow_12_3837"/>
<feColorMatrix in="SourceAlpha" type="matrix" values="0 0 0 0 0 0 0 0 0 0 0 0 0 0 0 0 0 0 127 0" result="hardAlpha"/>
<feOffset dy="100"/>
<feGaussianBlur stdDeviation="40"/>
<feColorMatrix type="matrix" values="0 0 0 0 0.219608 0 0 0 0 0.219608 0 0 0 0 0.219608 0 0 0 0.1 0"/>
<feBlend mode="normal" in2="effect5_dropShadow_12_3837" result="effect6_dropShadow_12_3837"/>
<feBlend mode="normal" in="SourceGraphic" in2="effect6_dropShadow_12_3837" result="shape"/>
</filter>
</defs>
</svg>
