<svg width="19" height="186" viewBox="0 0 19 186" fill="none" xmlns="http://www.w3.org/2000/svg">
<path d="M10.4493 17V9.25811H13.1148L13.511 6.22692H10.4493V4.29617C10.4493 3.42148 10.698 2.8226 11.9791 2.8226H13.6025V0.120123C12.8127 0.0371794 12.0187 -0.00286969 11.2243 0.000159793C8.86829 0.000159793 7.25068 1.40949 7.25068 3.99673V6.22125H4.60254V9.25245H7.25646V17H10.4493Z" fill="#FAFAFA"/>
<path d="M9.10052 60.6518C6.971 60.6518 5.25237 62.3704 5.25237 64.5C5.25237 66.6296 6.971 68.3482 9.10052 68.3482C11.23 68.3482 12.9487 66.6296 12.9487 64.5C12.9487 62.3704 11.23 60.6518 9.10052 60.6518ZM9.10052 67.0011C7.72337 67.0011 6.5995 65.8772 6.5995 64.5C6.5995 63.1228 7.72337 61.9989 9.10052 61.9989C10.4777 61.9989 11.6015 63.1228 11.6015 64.5C11.6015 65.8772 10.4777 67.0011 9.10052 67.0011ZM13.1063 59.5973C12.6091 59.5973 12.2076 59.9988 12.2076 60.496C12.2076 60.9933 12.6091 61.3948 13.1063 61.3948C13.6035 61.3948 14.005 60.9951 14.005 60.496C14.0051 60.378 13.982 60.261 13.9369 60.1519C13.8918 60.0428 13.8256 59.9437 13.7421 59.8602C13.6586 59.7767 13.5595 59.7105 13.4504 59.6654C13.3413 59.6203 13.2243 59.5972 13.1063 59.5973ZM16.6017 64.5C16.6017 63.4643 16.6111 62.438 16.5529 61.4042C16.4948 60.2033 16.2208 59.1376 15.3428 58.2595C14.4628 57.3796 13.399 57.1075 12.1982 57.0493C11.1625 56.9912 10.1362 57.0006 9.1024 57.0006C8.06672 57.0006 7.04042 56.9912 6.00662 57.0493C4.80583 57.1075 3.74013 57.3814 2.86205 58.2595C1.9821 59.1395 1.71004 60.2033 1.65188 61.4042C1.59372 62.4399 1.6031 63.4662 1.6031 64.5C1.6031 65.5338 1.59372 66.562 1.65188 67.5958C1.71004 68.7967 1.98397 69.8624 2.86205 70.7405C3.742 71.6204 4.80583 71.8925 6.00662 71.9507C7.0423 72.0088 8.06859 71.9994 9.1024 71.9994C10.1381 71.9994 11.1644 72.0088 12.1982 71.9507C13.399 71.8925 14.4647 71.6186 15.3428 70.7405C16.2227 69.8605 16.4948 68.7967 16.5529 67.5958C16.613 66.562 16.6017 65.5357 16.6017 64.5ZM14.9506 68.9242C14.8137 69.2657 14.6485 69.5209 14.384 69.7836C14.1194 70.0481 13.8662 70.2132 13.5247 70.3502C12.5378 70.7423 10.1944 70.6542 9.10052 70.6542C8.00668 70.6542 5.66139 70.7423 4.67449 70.3521C4.33302 70.2151 4.07785 70.05 3.81518 69.7854C3.55063 69.5209 3.38552 69.2676 3.24855 68.9261C2.8583 67.9373 2.94648 65.5939 2.94648 64.5C2.94648 63.4061 2.8583 61.0608 3.24855 60.0739C3.38552 59.7324 3.55063 59.4772 3.81518 59.2146C4.07972 58.9519 4.33302 58.7849 4.67449 58.6479C5.66139 58.2577 8.00668 58.3458 9.10052 58.3458C10.1944 58.3458 12.5397 58.2577 13.5266 58.6479C13.868 58.7849 14.1232 58.95 14.3859 59.2146C14.6504 59.4791 14.8155 59.7324 14.9525 60.0739C15.3428 61.0608 15.2546 63.4061 15.2546 64.5C15.2546 65.5939 15.3427 67.9373 14.9506 68.9242Z" fill="#FAFAFA"/>
<path d="M17.6025 113.782C16.9774 114.075 16.297 114.286 15.5963 114.368C16.3238 113.898 16.8687 113.157 17.1286 112.282C16.4458 112.723 15.6979 113.032 14.918 113.196C14.592 112.818 14.1978 112.516 13.7598 112.31C13.3219 112.104 12.8496 111.999 12.3724 112C10.4417 112 8.88904 113.7 8.88904 115.786C8.88904 116.078 8.92173 116.371 8.97485 116.653C6.08397 116.489 3.50568 114.989 1.79158 112.692C1.47925 113.272 1.31558 113.931 1.3176 114.603C1.3176 115.916 1.93255 117.075 2.8703 117.756C2.31767 117.732 1.77798 117.567 1.29512 117.274V117.321C1.29512 119.161 2.49234 120.685 4.08794 121.036C3.78835 121.12 3.48015 121.163 3.17062 121.164C2.94384 121.164 2.72933 121.14 2.51277 121.107C2.95406 122.607 4.23912 123.696 5.76935 123.732C4.57213 124.75 3.07255 125.349 1.44426 125.349C1.15211 125.349 0.882433 125.338 0.602539 125.303C2.14706 126.379 3.97966 127 5.95322 127C12.3601 127 15.866 121.235 15.866 116.232C15.866 116.067 15.866 115.903 15.8558 115.739C16.534 115.2 17.1286 114.532 17.6025 113.782Z" fill="#FAFAFA"/>
<path d="M2.188 171.376C3.3964 171.376 4.376 170.396 4.376 169.188C4.376 167.98 3.3964 167 2.188 167C0.979601 167 0 167.98 0 169.188C0 170.396 0.979601 171.376 2.188 171.376Z" fill="#FAFAFA"/>
<path d="M6.44229 173.033V185.172H10.2113V179.169C10.2113 177.585 10.5093 176.051 12.4733 176.051C14.4103 176.051 14.4343 177.862 14.4343 179.269V185.173H18.2053V178.516C18.2053 175.246 17.5013 172.733 13.6793 172.733C11.8443 172.733 10.6143 173.74 10.1113 174.693H10.0603V173.033H6.44229ZM0.300293 173.033H4.07529V185.172H0.300293V173.033Z" fill="#FAFAFA"/>
</svg>
